<?xml version="1.0" encoding="UTF-8" standalone="no"?>
<!-- Created with Inkscape (http://www.inkscape.org/) -->

<svg
   width="148.61792mm"
   height="83.12487mm"
   viewBox="0 0 148.61792 83.12487"
   version="1.1"
   id="svg1"
   xml:space="preserve"
   inkscape:version="1.3 (0e150ed6c4, 2023-07-21)"
   sodipodi:docname="paintbrush.svg"
   xmlns:inkscape="http://www.inkscape.org/namespaces/inkscape"
   xmlns:sodipodi="http://sodipodi.sourceforge.net/DTD/sodipodi-0.dtd"
   xmlns="http://www.w3.org/2000/svg"
   xmlns:svg="http://www.w3.org/2000/svg"><sodipodi:namedview
     id="namedview1"
     pagecolor="#505050"
     bordercolor="#eeeeee"
     borderopacity="1"
     inkscape:showpageshadow="0"
     inkscape:pageopacity="0"
     inkscape:pagecheckerboard="0"
     inkscape:deskcolor="#d1d1d1"
     inkscape:document-units="mm"
     inkscape:zoom="0.76078844"
     inkscape:cx="113.69784"
     inkscape:cy="-43.376053"
     inkscape:window-width="1920"
     inkscape:window-height="1080"
     inkscape:window-x="0"
     inkscape:window-y="0"
     inkscape:window-maximized="1"
     inkscape:current-layer="layer1" /><defs
     id="defs1"><inkscape:path-effect
       effect="powerstroke"
       id="path-effect7"
       is_visible="true"
       lpeversion="1.3"
       scale_width="1"
       interpolator_type="CentripetalCatmullRom"
       interpolator_beta="0.75"
       start_linecap_type="round"
       end_linecap_type="round"
       offset_points="35.516719,5.2166275"
       linejoin_type="spiro"
       miter_limit="4"
       not_jump="true"
       sort_points="true"
       message="&lt;b&gt;Ctrl + click&lt;/b&gt; on existing node and move it" /><inkscape:path-effect
       effect="simplify"
       id="path-effect6"
       is_visible="true"
       lpeversion="1.3"
       threshold="0.012"
       steps="1"
       smooth_angles="0"
       helper_size="0"
       simplify_individual_paths="false"
       simplify_just_coalesce="false"
       step="1" /><inkscape:path-effect
       effect="powerstroke"
       id="path-effect5"
       is_visible="true"
       lpeversion="1.3"
       scale_width="1"
       interpolator_type="CentripetalCatmullRom"
       interpolator_beta="0.75"
       start_linecap_type="round"
       end_linecap_type="round"
       offset_points="65.548462,5.2166275"
       linejoin_type="spiro"
       miter_limit="4"
       not_jump="true"
       sort_points="true"
       message="&lt;b&gt;Ctrl + click&lt;/b&gt; on existing node and move it" /><inkscape:path-effect
       effect="simplify"
       id="path-effect4"
       is_visible="true"
       lpeversion="1.3"
       threshold="0.012"
       steps="1"
       smooth_angles="0"
       helper_size="0"
       simplify_individual_paths="false"
       simplify_just_coalesce="false"
       step="1" /><inkscape:path-effect
       effect="powerstroke"
       id="path-effect3"
       is_visible="true"
       lpeversion="1.3"
       scale_width="1"
       interpolator_type="CentripetalCatmullRom"
       interpolator_beta="0.75"
       start_linecap_type="round"
       end_linecap_type="round"
       offset_points="221.52827,5.2166275"
       linejoin_type="spiro"
       miter_limit="4"
       not_jump="true"
       sort_points="true"
       message="&lt;b&gt;Ctrl + click&lt;/b&gt; on existing node and move it" /><inkscape:path-effect
       effect="simplify"
       id="path-effect2"
       is_visible="true"
       lpeversion="1.3"
       threshold="0.012"
       steps="1"
       smooth_angles="0"
       helper_size="0"
       simplify_individual_paths="false"
       simplify_just_coalesce="false"
       step="1" /><clipPath
       clipPathUnits="userSpaceOnUse"
       id="clipPath8"><rect
         style="fill:#ffffff;stroke:#000000;stroke-width:0.465;stroke-opacity:1"
         id="rect8"
         width="205.36909"
         height="137.0974"
         x="218.48465"
         y="-234.31766" /></clipPath></defs><g
     inkscape:label="Layer 1"
     inkscape:groupmode="layer"
     id="layer1"
     transform="translate(-25.338224,-171.16711)"><path
       id="path73"
       style="fill:#100f0f;stroke-width:0.999998;fill-opacity:1"
       d="m 110.90527,254.29198 6.30089,-0.005 6.3005,-0.005 1.31379,-0.10501 1.31378,-0.10461 2.12227,-0.13659 2.12228,-0.13659 0.89494,-0.2862 0.89533,-0.28621 h 0.62965 0.63006 l 2.01213,-0.50806 2.01214,-0.50768 0.35094,-0.19976 0.35095,-0.19935 h 0.40701 0.407 v -0.29529 -0.29528 l 0.4303,-0.40108 0.4303,-0.4007 -0.1208,-0.31423 -0.1208,-0.31464 h -0.29608 -0.29647 l -0.4678,0.17212 -0.46819,0.17252 -1.41485,-0.15278 -1.41485,-0.15277 -0.26331,0.21633 -0.26331,0.21634 -0.69676,-0.017 -0.69677,-0.017 -0.47175,-0.017 -0.47135,-0.0166 v -0.28146 -0.28108 l 0.82506,-0.26805 0.82546,-0.26844 0.60637,-0.06 0.60636,-0.06 2.3244,4e-4 2.32439,7.6e-4 2.17162,0.23055 2.17162,0.23094 1.6367,-0.0947 1.63671,-0.0948 0.17528,-0.28384 0.17527,-0.28344 -0.43976,-0.16264 -0.43978,-0.16305 -1.56407,-0.1204 -1.56407,-0.1208 0.2941,-0.41964 0.2941,-0.42003 v -0.47648 -0.47649 l 0.55583,0.11527 0.55584,0.11527 3.1463,0.30792 3.1463,0.30793 1.40143,0.29765 1.40143,0.29804 2.25649,0.21437 2.2565,0.21436 4.80551,-0.10225 4.80551,-0.10224 1.52815,-0.24358 1.52814,-0.24357 0.45122,-0.422 0.45123,-0.42162 0.004,-0.35371 0.004,-0.35371 h -0.78362 -0.78401 l -0.26567,-0.32055 -0.26608,-0.32055 -0.56728,0.0833 -0.56728,0.0833 v -0.15317 -0.15357 l -0.4074,-0.12948 -0.40701,-0.12909 0.10264,-0.1662 0.10264,-0.16619 0.8606,-0.1212 0.8602,-0.12159 0.68018,0.007 0.68058,0.007 0.68374,-0.22541 0.68413,-0.22581 v -0.21475 -0.21475 l -0.3249,-0.23765 -0.32489,-0.23725 0.52702,-0.34543 0.52701,-0.34502 v -0.29885 -0.29844 l -0.45477,-0.0135 -0.45477,-0.0138 0.45477,-0.21949 0.45477,-0.2191 v -0.3695 -0.3695 l -0.55583,-0.11725 -0.55583,-0.11685 -0.29134,-0.15396 -0.29095,-0.15396 -0.0786,-0.23528 -0.0786,-0.23528 0.57202,-0.23015 0.57163,-0.23015 0.46464,-0.21634 0.46464,-0.21672 -0.0604,-0.59689 -0.0604,-0.59728 -0.35332,-0.22068 -0.35292,-0.22107 -0.35451,0.21357 -0.3541,0.21357 -1.70145,-0.0131 -1.70106,-0.013 -0.0778,-0.23291 -0.0778,-0.23331 0.86928,-0.13304 0.86968,-0.13264 0.60636,-0.22936 0.60636,-0.22897 0.55584,-0.40305 0.55583,-0.40267 v -0.25897 -0.25857 l -0.55583,-0.2941 -0.55584,-0.2941 0.35372,-0.13817 0.35371,-0.13817 v -0.36121 -0.36082 l -0.31976,-0.12277 -0.31977,-0.12277 -0.64031,-7.7e-4 -0.64031,-7.6e-4 -0.80849,-0.21041 -0.80849,-0.21041 -0.40424,-0.19857 -0.40424,-0.19857 -1.41485,0.0782 -1.41485,0.0782 -0.83572,-0.52701 -0.83533,-0.52702 0.10382,-0.65689 0.10422,-0.65689 -0.2791,-0.006 -0.2791,-0.006 0.5586,-0.49148 0.5582,-0.49149 0.28502,0.10935 0.28502,0.10936 0.21752,-0.40662 0.21791,-0.40661 v -0.50688 -0.50648 l 0.22699,-0.14054 0.22739,-0.14054 1.52499,-0.26489 1.52499,-0.2645 0.46385,-0.56688 0.46385,-0.56689 0.008,-0.40977 0.008,-0.40977 -0.45478,-0.39871 -0.45437,-0.39872 -0.30358,-0.13738 -0.30318,-0.13738 0.4678,-0.0142 0.46819,-0.0142 0.40662,-0.21752 0.4066,-0.21752 -0.1204,-0.31344 -0.12,-0.31306 0.22304,-0.26883 0.22304,-0.26884 -0.13067,-0.2108 -0.13027,-0.2112 h -0.29134 -0.29094 v -0.30319 -0.30318 l -0.25266,-0.0202 -0.25265,-0.0201 0.50412,-0.14014 0.50412,-0.14054 0.0517,-0.2941 0.0517,-0.2945 -0.99876,-0.4528 -0.99837,-0.45319 -0.31542,0.1208 -0.31502,0.1212 v -0.33003 -0.32964 l 0.55583,-0.21001 0.55584,-0.20963 0.44727,-0.5432 0.44766,-0.54319 0.008,-0.24555 0.008,-0.24555 -0.42674,-0.22817 -0.42675,-0.22857 -0.4824,0.092 -0.48241,0.0924 -0.34661,-0.25304 -0.34621,-0.25344 0.26963,-0.3249 0.27002,-0.32529 0.63202,-0.003 0.63203,-0.003 0.50529,-0.25581 0.50531,-0.25542 v -0.39239 -0.3924 l -0.50531,-0.25542 -0.50529,-0.25581 0.35371,-0.003 0.35371,-0.003 v -0.48201 -0.48201 l -0.49504,-0.3245 -0.49543,-0.3245 -0.96995,-0.22818 -0.97034,-0.22857 -1.15588,-0.38845 -1.15588,-0.38845 -0.76427,0.0189 -0.76427,0.0189 -1.01061,-0.25068 -1.01061,-0.25107 -1.41484,0.0233 -1.41485,0.0233 0.74966,-0.23923 0.74967,-0.23923 0.25581,-0.25621 0.2562,-0.2558 -0.27199,-0.43504 -0.2716,-0.43543 0.61189,-0.51991 0.61188,-0.51952 0.12752,-0.43661 0.1275,-0.43661 0.29529,-0.24515 0.29529,-0.24515 v -0.35451 -0.3545 l -0.99758,-0.42911 -0.99719,-0.42912 h -0.79703 -0.79664 l -0.25187,-0.30317 -0.25146,-0.30319 h 0.93454 0.93403 v -0.49345 -0.49347 l -0.17449,-0.10777 -0.17449,-0.10817 -0.12001,-1.36944 -0.12001,-1.36906 -0.0592,-0.40424 -0.0592,-0.40424 h 0.60637 0.60636 v -0.29529 -0.29529 l -0.70743,-0.4753 -0.70742,-0.4753 -0.12988,-0.61308 -0.12988,-0.61307 0.19975,-0.73861 0.20015,-0.73861 0.35806,-0.40424 0.35844,-0.40425 0.12396,-0.52583 0.12396,-0.52543 -0.40069,-0.82902 -0.40069,-0.82901 v -0.26449 -0.26411 l 0.40424,-0.25265 0.40425,-0.25225 v -0.29252 -0.29292 l -1.09035,-1.09903 -1.09036,-1.09904 -0.88033,-0.14449 -0.88033,-0.14448 -0.34542,-0.30516 -0.34582,-0.30555 -0.62137,0.0912 -0.62136,0.0912 -1.81238,-0.34818 -1.81238,-0.34819 -0.36674,-0.45319 -0.36713,-0.45319 -0.46583,0.24949 -0.46622,0.24949 -0.61031,-0.12238 -0.61071,-0.12198 -0.25699,0.21318 -0.2566,0.21317 -0.40424,-0.43385 -0.40385,-0.43385 -0.44214,0.14054 -0.44174,0.14014 -0.4903,0.0537 -0.48992,0.0537 -0.11329,-0.18278 -0.1133,-0.18317 -0.36319,0.11527 -0.36319,0.11527 -0.11882,-0.3091 -0.11843,-0.3095 -0.36003,-0.002 -0.36042,-0.002 -0.59294,-0.3095 -0.59295,-0.30911 -0.2787,0.10699 -0.27871,0.10698 0.15238,0.25384 0.15278,0.25423 -0.35845,-0.29095 -0.35845,-0.29094 -0.35805,0.22383 -0.35845,0.22344 -0.32964,-0.69045 -0.32923,-0.69084 h -0.69874 -0.69874 l -0.11251,-0.18238 -0.1129,-0.18199 -1.26365,-0.14488 -1.26365,-0.14488 -0.74967,-0.38056 -0.75006,-0.38016 h -0.31621 -0.31621 l -0.19225,-0.5053 -0.19186,-0.50531 h -0.40937 -0.40938 v -0.30318 -0.30318 h -0.28976 -0.28976 l -0.0639,-0.55426 -0.0636,-0.55386 -0.40424,-0.0667 -0.40425,-0.0663 -0.42556,-0.50806 -0.42556,-0.50846 -1.59565,-0.10659 -1.59565,-0.10659 -1.13299,0.40148 -1.13298,0.40148 -1.09035,-0.2037 -1.09035,-0.2033 -0.60636,-0.0403 -0.60637,-0.0403 -0.96284,-0.1583 -0.96244,-0.15831 -0.0955,-0.15435 -0.0951,-0.15436 -0.88903,0.10028 -0.88901,0.10027 -0.59097,-0.43701 -0.59057,-0.43661 -1.12312,0.17607 -1.12272,0.17606 0.0979,-0.37464 0.0979,-0.37424 -0.5807,0.041 -0.58071,0.041 -0.77335,-0.25857 -0.77295,-0.25897 -0.47452,0.0908 -0.47451,0.0908 -1.27905,-0.27792 -1.27865,-0.27831 -1.0106,-0.2041 -1.01061,-0.20409 -0.30319,-0.0604 -0.30318,-0.0608 -0.89533,-0.27752 -0.89533,-0.27752 -0.0723,0.21633 -0.0723,0.21673 -0.85152,-0.18831 -0.85191,-0.1883 -0.656886,-0.10856 -0.6569,-0.10856 v -0.37503 -0.37504 l -0.42634,-0.22817 -0.42675,-0.22857 -0.78598,0.075 -0.78638,0.075 v -0.15673 -0.15712 h 0.30319 0.30318 v -0.51162 -0.51161 l -0.33397,-0.1283 -0.33397,-0.1283 -0.76072,0.2033 -0.76072,0.20291 -0.31819,-0.37187 -0.32173,-0.3695 h -0.21041 -0.21041 l -0.12672,0.33002 -0.12633,0.33003 0.2337,0.37464 0.2341,0.37463 v 0.19107 0.19146 l -0.40424,0.1283 -0.40424,0.1283 v 0.25304 0.25305 l 0.50688,0.44228 0.50688,0.44056 h 0.27673 0.27713 l 0.21041,0.25383 0.21081,0.25384 0.13974,0.55702 0.13975,0.55741 0.33121,0.19343 0.33121,0.19344 -0.66321,0.006 -0.6632,0.006 -0.10936,-0.28463 -0.10935,-0.28502 -0.89494,0.0138 -0.89494,0.0134 v 0.34779 0.3474 l 0.60637,0.25146 0.60636,0.25108 -0.006,0.12712 -0.006,0.12711 -0.29568,0.39082 -0.29608,0.39121 -0.40226,0.0296 -0.40228,0.0296 -0.10737,-0.33753 -0.10698,-0.33792 -0.48833,-0.26133 -0.48833,-0.26134 -0.3391,0.12988 -0.33872,0.12988 0.12791,0.68216 0.12791,0.68176 -0.30792,0.11804 -0.30793,0.11843 v -0.14685 -0.14646 l -2.02911,0.0549 -2.0291,0.0548 -0.42912,-0.22976 -0.42911,-0.22976 -1.33156,-0.28462 -1.33154,-0.28463 -0.92376,0.1212 -0.92376,0.12119 -0.26331,-0.3174 -0.26331,-0.317 h -0.27831 -0.27831 v 0.29845 0.29844 l -0.75796,-0.007 -0.75795,-0.007 -1.11167,0.005 -1.11167,0.005 -1.11166,-0.17922 -1.11167,-0.17923 -2.3244,-0.23093 -2.32439,-0.23134 -1.09509,-0.18949 -1.09469,-0.18988 h -0.8527 -0.8523 l -0.33121,-0.50531 -0.33121,-0.5053 h -0.3924 -0.3924 l -0.18949,0.35372 -0.18988,0.35371 -2.62047,0.0691 -2.62047,0.0694 -2.09859,0.38609 -2.09819,0.38608 -0.30318,0.0111 -0.30318,0.0115 -1.81909,0.1958 -1.81909,0.19581 -0.63756,0.10106 -0.63716,0.10106 -0.10619,0.27594 -0.1058,0.27595 0.5136,1.27115 0.51359,1.27155 0.0391,0.76506 0.0391,0.76505 -0.921,0.11449 -0.92099,0.11449 -0.63044,0.16817 -0.63006,0.16817 -1.0339,-0.0995 -1.03389,-0.0991 -0.13659,0.35529 -0.1362,0.35529 0.24239,0.38805 0.24239,0.38846 -0.70545,-0.13264 -0.70584,-0.13225 -0.91981,0.35134 -0.91942,0.35095 v 0.2949 0.29449 l 0.39003,0.10225 0.39003,0.10184 0.0107,0.33398 0.0106,0.33358 0.0162,0.68571 0.0162,0.68532 -0.23963,0.57794 -0.23923,0.57754 -0.22818,0.0241 -0.22817,0.0241 -0.25502,-0.0335 -0.25541,-0.0335 -0.11607,0.30239 -0.11606,0.30199 0.39279,0.42162 0.39241,0.42121 -0.10067,0.54912 -0.10027,0.54913 -0.37543,0.53649 -0.37582,0.53649 v 0.42359 0.42358 l -0.40424,0.40424 -0.40424,0.40425 v 0.20212 0.20212 l 0.35371,0.38293 0.35371,0.38331 0.45478,0.5436 0.45477,0.54359 v 0.7698 0.7698 l -0.30318,0.11606 -0.30319,0.11646 -0.006,0.36003 -0.006,0.36003 -0.29647,0.3924 -0.29686,0.39239 v 0.44175 0.44214 l -0.30319,0.25147 -0.30318,0.25186 v 0.75717 0.75756 l -0.96007,0.13777 -0.96008,0.13777 -0.4374,-0.007 -0.43701,-0.007 -1.20523,0.80494 -1.20522,0.80493 h -0.32845 -0.32805 v 0.16146 0.16146 l -0.70743,0.25581 -0.70742,0.25581 v 0.3245 0.3249 l -0.33635,0.37187 -0.33634,0.37147 -0.0173,0.84441 -0.0173,0.84441 0.5053,0.13145 0.5053,0.13147 -0.0655,0.28541 -0.0659,0.28542 -0.38884,0.41727 -0.38925,0.41727 v 0.35568 0.35608 l 0.96008,-0.0537 0.96007,-0.0541 -0.0548,0.48082 -0.0549,0.48083 -0.0813,0.0817 -0.0813,0.0813 -1.07654,0.23765 -1.07652,0.23804 -0.0667,0.57991 -0.0663,0.57992 0.42003,-0.10975 0.42043,-0.10974 v 0.135 0.13541 l -0.45359,0.19936 -0.45359,0.19975 -0.0707,0.37622 -0.071,0.37582 1.48432,-0.13186 1.48472,-0.13145 0.78362,-0.11488 0.78362,-0.11488 -0.13896,0.22423 -0.13857,0.22422 -0.64466,0.0193 -0.64505,0.0193 -1.00784,0.2341 -1.00823,0.23409 -0.0738,0.38411 -0.0742,0.38411 -0.48674,0.52465 -0.48675,0.52464 -0.32253,0.84402 -0.32252,0.8444 0.0892,0.26726 0.0892,0.26766 0.99363,0.0131 0.99364,0.0131 1.47367,0.25936 1.47366,0.25897 -0.51359,0.4761 -0.51359,0.47608 0.002,0.26212 0.002,0.26253 0.65098,0.37029 0.65057,0.37069 -0.31463,0.17607 -0.31463,0.17606 -1.39866,0.13659 -1.39866,0.13659 -0.68137,0.27674 -0.68177,0.27712 h -0.53175 -0.53175 l -0.57242,0.60636 -0.57201,0.60637 h -0.197 -0.19698 l -0.79664,0.63992 -0.79664,0.64031 v 0.44688 0.44648 l -0.30319,0.25186 -0.30318,0.25147 v 0.35806 0.35766 l 0.31976,0.12277 0.31977,0.12277 h 0.79506 0.79506 l 0.79862,0.2491 0.79821,0.2491 -0.8519,0.21199 -0.85231,0.21159 0.0505,0.24634 0.0505,0.24673 -0.45477,0.0202 -0.45477,0.0202 0.5053,0.16185 0.50531,0.16185 -0.48833,0.0202 -0.48873,0.0202 0.0975,0.0971 0.0975,0.0975 1.09824,0.18238 1.09864,0.18199 -1.35129,0.0237 -1.35089,0.0237 -0.53886,0.2045 -0.53846,0.20488 0.10816,0.85625 0.10816,0.85665 0.1362,0.65018 0.1358,0.65018 0.38253,0.12159 0.38253,0.1212 0.20173,0.377 0.20173,0.377 -0.37345,0.11843 -0.37306,0.11844 -0.23292,0.51122 -0.23291,0.51083 v 0.1883 0.1887 l 0.77019,0.39279 0.7702,0.3928 1.30155,0.3391 1.30155,0.33911 1.88541,0.26489 1.88581,0.26529 0.12988,0.12948 0.12987,0.12988 -0.29765,0.1883 -0.29726,0.18791 -0.649,0.003 -0.649,0.003 -0.36161,0.37187 -0.3616,0.37227 -0.3703,0.13344 -0.37068,0.13342 0.0841,0.25187 0.0837,0.25186 0.69401,0.11251 0.6936,0.1129 0.62769,0.37069 0.62768,0.37108 -0.0967,0.36951 -0.0963,0.3695 -0.28146,0.23331 -0.28147,0.2337 v 0.48674 0.48715 l 0.25265,0.0884 0.25265,0.0888 0.60637,0.23805 0.60636,0.23805 1.38484,0.0691 1.38524,0.0687 0.83139,0.22383 0.83177,0.22423 1.42156,0.007 1.42156,0.007 0.90955,0.27397 0.90955,0.27436 0.90954,0.003 0.90955,0.003 3.03182,0.50806 3.03181,0.50767 2.93076,0.20607 2.93076,0.20607 1.71803,0.19186 1.71803,0.19185 4.44983,0.0189 4.44982,0.0186 0.57439,-0.14409 0.57439,-0.14409 -0.22384,0.41846 -0.22383,0.41806 v 0.41766 0.41767 h 0.377 0.37701 l 0.54122,0.42555 0.54084,0.42557 0.39831,-0.10422 0.39872,-0.10422 0.22147,0.41411 0.22146,0.41412 1.72632,-0.13265 1.72633,-0.13264 0.44963,-0.2491 0.44925,-0.2491 0.65334,-0.37029 0.65334,-0.3699 2.29874,0.0177 2.29912,0.0178 1.54078,0.21436 1.54039,0.21436 0.28818,-0.11053 0.28818,-0.11054 4.99698,1.50447 4.99658,1.50485 2.526511,0.53412 2.526525,0.53373 0.50529,0.0754 0.50531,0.075 2.22333,0.31582 2.22334,0.31581 1.58223,0.22028 z" /></g></svg>
